<svg id="visual" viewBox="0 0 900 600" width="900" height="600" xmlns="http://www.w3.org/2000/svg" xmlns:xlink="http://www.w3.org/1999/xlink" version="1.1"><rect x="0" y="0" width="900" height="600" fill="#58758a"></rect><defs><linearGradient id="grad1_0" x1="33.3%" y1="0%" x2="100%" y2="100%"><stop offset="20%" stop-color="#000000" stop-opacity="1"></stop><stop offset="80%" stop-color="#000000" stop-opacity="1"></stop></linearGradient></defs><defs><linearGradient id="grad1_1" x1="33.3%" y1="0%" x2="100%" y2="100%"><stop offset="20%" stop-color="#000000" stop-opacity="1"></stop><stop offset="80%" stop-color="#082b3c" stop-opacity="1"></stop></linearGradient></defs><defs><linearGradient id="grad1_2" x1="33.3%" y1="0%" x2="100%" y2="100%"><stop offset="20%" stop-color="#314e62" stop-opacity="1"></stop><stop offset="80%" stop-color="#082b3c" stop-opacity="1"></stop></linearGradient></defs><defs><linearGradient id="grad1_3" x1="33.3%" y1="0%" x2="100%" y2="100%"><stop offset="20%" stop-color="#314e62" stop-opacity="1"></stop><stop offset="80%" stop-color="#58758a" stop-opacity="1"></stop></linearGradient></defs><defs><linearGradient id="grad2_0" x1="0%" y1="0%" x2="66.7%" y2="100%"><stop offset="20%" stop-color="#000000" stop-opacity="1"></stop><stop offset="80%" stop-color="#000000" stop-opacity="1"></stop></linearGradient></defs><defs><linearGradient id="grad2_1" x1="0%" y1="0%" x2="66.7%" y2="100%"><stop offset="20%" stop-color="#082b3c" stop-opacity="1"></stop><stop offset="80%" stop-color="#000000" stop-opacity="1"></stop></linearGradient></defs><defs><linearGradient id="grad2_2" x1="0%" y1="0%" x2="66.7%" y2="100%"><stop offset="20%" stop-color="#082b3c" stop-opacity="1"></stop><stop offset="80%" stop-color="#314e62" stop-opacity="1"></stop></linearGradient></defs><defs><linearGradient id="grad2_3" x1="0%" y1="0%" x2="66.7%" y2="100%"><stop offset="20%" stop-color="#58758a" stop-opacity="1"></stop><stop offset="80%" stop-color="#314e62" stop-opacity="1"></stop></linearGradient></defs><g transform="translate(900, 0)"><path d="M0 540.8C-39.5 507.5 -79 474.3 -123.7 461.7C-168.5 449.2 -218.5 457.4 -254 439.9C-289.5 422.5 -310.3 379.5 -350.7 350.7C-391.1 322 -451 307.5 -468.4 270.4C-485.7 233.3 -460.6 173.6 -465.6 124.8C-470.6 75.9 -505.7 38 -540.8 0L0 0Z" fill="#446176"></path><path d="M0 405.6C-29.6 380.7 -59.2 355.7 -92.8 346.3C-126.4 336.9 -163.9 343 -190.5 330C-217.1 316.9 -232.8 284.6 -263 263C-293.3 241.5 -338.3 230.6 -351.3 202.8C-364.3 175 -345.4 130.2 -349.2 93.6C-352.9 56.9 -379.3 28.5 -405.6 0L0 0Z" fill="#1d3c4f"></path><path d="M0 270.4C-19.7 253.8 -39.5 237.1 -61.9 230.9C-84.2 224.6 -109.3 228.7 -127 220C-144.7 211.3 -155.2 189.7 -175.4 175.4C-195.6 161 -225.5 153.8 -234.2 135.2C-242.9 116.7 -230.3 86.8 -232.8 62.4C-235.3 38 -252.8 19 -270.4 0L0 0Z" fill="#001a2b"></path><path d="M0 135.2C-9.9 126.9 -19.7 118.6 -30.9 115.4C-42.1 112.3 -54.6 114.3 -63.5 110C-72.4 105.6 -77.6 94.9 -87.7 87.7C-97.8 80.5 -112.8 76.9 -117.1 67.6C-121.4 58.3 -115.1 43.4 -116.4 31.2C-117.6 19 -126.4 9.5 -135.2 0L0 0Z" fill="#000000"></path></g><g transform="translate(0, 600)"><path d="M0 -540.8C39.4 -511.1 78.8 -481.4 127.6 -476.2C176.4 -471 234.7 -490.4 270.4 -468.4C306.2 -446.4 319.4 -383 338.7 -338.7C358 -294.4 383.4 -269.3 415.7 -240C447.9 -210.7 487 -177.1 509 -136.4C531 -95.7 535.9 -47.8 540.8 0L0 0Z" fill="#446176"></path><path d="M0 -405.6C29.5 -383.3 59.1 -361 95.7 -357.2C132.3 -353.3 176 -367.8 202.8 -351.3C229.6 -334.8 239.5 -287.2 254 -254C268.5 -220.8 287.6 -202 311.8 -180C336 -158 365.3 -132.8 381.8 -102.3C398.3 -71.8 402 -35.9 405.6 0L0 0Z" fill="#1d3c4f"></path><path d="M0 -270.4C19.7 -255.6 39.4 -240.7 63.8 -238.1C88.2 -235.5 117.3 -245.2 135.2 -234.2C153.1 -223.2 159.7 -191.5 169.4 -169.4C179 -147.2 191.7 -134.7 207.8 -120C224 -105.3 243.5 -88.6 254.5 -68.2C265.5 -47.8 268 -23.9 270.4 0L0 0Z" fill="#001a2b"></path><path d="M0 -135.2C9.8 -127.8 19.7 -120.3 31.9 -119.1C44.1 -117.8 58.7 -122.6 67.6 -117.1C76.5 -111.6 79.8 -95.7 84.7 -84.7C89.5 -73.6 95.9 -67.3 103.9 -60C112 -52.7 121.8 -44.3 127.3 -34.1C132.8 -23.9 134 -12 135.2 0L0 0Z" fill="#000000"></path></g></svg>