<svg xmlns="http://www.w3.org/2000/svg" viewBox="0 0 208.91 34.38"><defs><style>.cls-1{fill:#e8e8f9;}</style></defs><g id="Layer_2" data-name="Layer 2"><g id="Layer_1-2" data-name="Layer 1"><rect class="cls-1" y="0.01" width="6.25" height="34.37" rx="3.12"/><path class="cls-1" d="M43.75,34.37h0A3.09,3.09,0,0,0,46,33.46L56.23,23.2a5.38,5.38,0,0,0,1.57-3.81V15a5.38,5.38,0,0,0-1.57-3.81L46,1A3.1,3.1,0,0,0,43.78.05h0a3.13,3.13,0,0,0-2.21,5.34l8,8a5.4,5.4,0,0,1,0,7.62l-8,8A3.12,3.12,0,0,0,43.75,34.37Z"/><path class="cls-1" d="M80.26,0h0a3.13,3.13,0,0,0-2.21.91L67.77,11.2A5.39,5.39,0,0,0,66.19,15v4.38a5.39,5.39,0,0,0,1.58,3.81L78,33.46a3.11,3.11,0,0,0,2.21.91h0A3.12,3.12,0,0,0,82.45,29l-8-8a5.4,5.4,0,0,1,0-7.62l8.06-8A3.12,3.12,0,0,0,80.26,0Z"/><path class="cls-1" d="M125.84,12.78,114,.92A3.12,3.12,0,0,0,111.77,0h0a3.12,3.12,0,0,0-2.21,5.33L121.42,17.2l2.21,2.21,14.05,14a3.1,3.1,0,0,0,2.21.92h0A3.13,3.13,0,0,0,142.1,29L130.26,17.2,142.12,5.34A3.12,3.12,0,0,0,139.91,0h0a3.1,3.1,0,0,0-2.21.92Z"/><path class="cls-1" d="M184.93,6.26h20.86a3.12,3.12,0,0,0,3.12-3.12h0A3.13,3.13,0,0,0,205.79,0H185.05a10.39,10.39,0,0,0-10.42,8.82A10.16,10.16,0,0,0,184.7,20.32h13.83a4.07,4.07,0,0,1,4.11,3.5,3.91,3.91,0,0,1-3.88,4.32H177.67a3.12,3.12,0,0,0-3.13,3.12h0a3.12,3.12,0,0,0,3.13,3.12H198.4a10.39,10.39,0,0,0,10.43-8.81,10.17,10.17,0,0,0-10.07-11.49H184.7a3.92,3.92,0,0,1-3.89-4.32A4.07,4.07,0,0,1,184.93,6.26Z"/></g></g></svg>