<svg id="visual" viewBox="0 0 900 450" width="900" height="450" xmlns="http://www.w3.org/2000/svg" xmlns:xlink="http://www.w3.org/1999/xlink" version="1.1"><rect x="0" y="0" width="900" height="450" fill="#001220"></rect><defs><linearGradient id="grad1_0" x1="50%" y1="100%" x2="100%" y2="0%"><stop offset="10%" stop-color="#fbae3c" stop-opacity="1"></stop><stop offset="90%" stop-color="#fbae3c" stop-opacity="1"></stop></linearGradient></defs><defs><linearGradient id="grad1_1" x1="50%" y1="100%" x2="100%" y2="0%"><stop offset="10%" stop-color="#fbae3c" stop-opacity="1"></stop><stop offset="90%" stop-color="#f17c53" stop-opacity="1"></stop></linearGradient></defs><defs><linearGradient id="grad1_2" x1="50%" y1="100%" x2="100%" y2="0%"><stop offset="10%" stop-color="#cc5867" stop-opacity="1"></stop><stop offset="90%" stop-color="#f17c53" stop-opacity="1"></stop></linearGradient></defs><defs><linearGradient id="grad1_3" x1="50%" y1="100%" x2="100%" y2="0%"><stop offset="10%" stop-color="#cc5867" stop-opacity="1"></stop><stop offset="90%" stop-color="#96446e" stop-opacity="1"></stop></linearGradient></defs><defs><linearGradient id="grad1_4" x1="50%" y1="100%" x2="100%" y2="0%"><stop offset="10%" stop-color="#593762" stop-opacity="1"></stop><stop offset="90%" stop-color="#96446e" stop-opacity="1"></stop></linearGradient></defs><defs><linearGradient id="grad1_5" x1="50%" y1="100%" x2="100%" y2="0%"><stop offset="10%" stop-color="#593762" stop-opacity="1"></stop><stop offset="90%" stop-color="#232745" stop-opacity="1"></stop></linearGradient></defs><defs><linearGradient id="grad1_6" x1="50%" y1="100%" x2="100%" y2="0%"><stop offset="10%" stop-color="#001220" stop-opacity="1"></stop><stop offset="90%" stop-color="#232745" stop-opacity="1"></stop></linearGradient></defs><defs><linearGradient id="grad2_0" x1="0%" y1="100%" x2="50%" y2="0%"><stop offset="10%" stop-color="#fbae3c" stop-opacity="1"></stop><stop offset="90%" stop-color="#fbae3c" stop-opacity="1"></stop></linearGradient></defs><defs><linearGradient id="grad2_1" x1="0%" y1="100%" x2="50%" y2="0%"><stop offset="10%" stop-color="#f17c53" stop-opacity="1"></stop><stop offset="90%" stop-color="#fbae3c" stop-opacity="1"></stop></linearGradient></defs><defs><linearGradient id="grad2_2" x1="0%" y1="100%" x2="50%" y2="0%"><stop offset="10%" stop-color="#f17c53" stop-opacity="1"></stop><stop offset="90%" stop-color="#cc5867" stop-opacity="1"></stop></linearGradient></defs><defs><linearGradient id="grad2_3" x1="0%" y1="100%" x2="50%" y2="0%"><stop offset="10%" stop-color="#96446e" stop-opacity="1"></stop><stop offset="90%" stop-color="#cc5867" stop-opacity="1"></stop></linearGradient></defs><defs><linearGradient id="grad2_4" x1="0%" y1="100%" x2="50%" y2="0%"><stop offset="10%" stop-color="#96446e" stop-opacity="1"></stop><stop offset="90%" stop-color="#593762" stop-opacity="1"></stop></linearGradient></defs><defs><linearGradient id="grad2_5" x1="0%" y1="100%" x2="50%" y2="0%"><stop offset="10%" stop-color="#232745" stop-opacity="1"></stop><stop offset="90%" stop-color="#593762" stop-opacity="1"></stop></linearGradient></defs><defs><linearGradient id="grad2_6" x1="0%" y1="100%" x2="50%" y2="0%"><stop offset="10%" stop-color="#232745" stop-opacity="1"></stop><stop offset="90%" stop-color="#001220" stop-opacity="1"></stop></linearGradient></defs><g transform="translate(900, 450)"><path d="M-337.5 0C-328.5 -58.7 -319.5 -117.4 -292.3 -168.8C-265.1 -220.1 -219.7 -264.1 -168 -291C-116.3 -317.9 -58.1 -327.7 0 -337.5L0 0Z" fill="#0f1d33"></path><path d="M-289.3 0C-281.6 -50.3 -273.8 -100.6 -250.5 -144.6C-227.2 -188.7 -188.4 -226.4 -144 -249.4C-99.6 -272.5 -49.8 -280.9 0 -289.3L0 0Z" fill="#3d3056"></path><path d="M-241.1 0C-234.6 -41.9 -228.2 -83.9 -208.8 -120.5C-189.4 -157.2 -157 -188.6 -120 -207.8C-83 -227.1 -41.5 -234.1 0 -241.1L0 0Z" fill="#773d6b"></path><path d="M-192.9 0C-187.7 -33.5 -182.6 -67.1 -167 -96.4C-151.5 -125.8 -125.6 -150.9 -96 -166.3C-66.4 -181.6 -33.2 -187.3 0 -192.9L0 0Z" fill="#b34c6d"></path><path d="M-144.6 0C-140.8 -25.2 -136.9 -50.3 -125.3 -72.3C-113.6 -94.3 -94.2 -113.2 -72 -124.7C-49.8 -136.2 -24.9 -140.4 0 -144.6L0 0Z" fill="#e1685e"></path><path d="M-96.4 0C-93.9 -16.8 -91.3 -33.5 -83.5 -48.2C-75.7 -62.9 -62.8 -75.5 -48 -83.1C-33.2 -90.8 -16.6 -93.6 0 -96.4L0 0Z" fill="#f99447"></path><path d="M-48.2 0C-46.9 -8.4 -45.6 -16.8 -41.8 -24.1C-37.9 -31.4 -31.4 -37.7 -24 -41.6C-16.6 -45.4 -8.3 -46.8 0 -48.2L0 0Z" fill="#fbae3c"></path></g><g transform="translate(0, 0)"><path d="M337.5 0C333.2 66.8 328.8 133.6 292.3 168.7C255.8 203.9 187.1 207.5 133 230.4C78.9 253.2 39.5 295.4 0 337.5L0 0Z" fill="#0f1d33"></path><path d="M289.3 0C285.6 57.2 281.8 114.5 250.5 144.6C219.2 174.8 160.4 177.9 114 197.5C67.6 217 33.8 253.2 0 289.3L0 0Z" fill="#3d3056"></path><path d="M241.1 0C238 47.7 234.9 95.4 208.8 120.5C182.7 145.7 133.6 148.2 95 164.5C56.4 180.9 28.2 211 0 241.1L0 0Z" fill="#773d6b"></path><path d="M192.9 0C190.4 38.2 187.9 76.3 167 96.4C146.2 116.5 106.9 118.6 76 131.6C45.1 144.7 22.5 168.8 0 192.9L0 0Z" fill="#b34c6d"></path><path d="M144.6 0C142.8 28.6 140.9 57.2 125.3 72.3C109.6 87.4 80.2 88.9 57 98.7C33.8 108.5 16.9 126.6 0 144.6L0 0Z" fill="#e1685e"></path><path d="M96.4 0C95.2 19.1 93.9 38.2 83.5 48.2C73.1 58.3 53.5 59.3 38 65.8C22.5 72.3 11.3 84.4 0 96.4L0 0Z" fill="#f99447"></path><path d="M48.2 0C47.6 9.5 47 19.1 41.8 24.1C36.5 29.1 26.7 29.6 19 32.9C11.3 36.2 5.6 42.2 0 48.2L0 0Z" fill="#fbae3c"></path></g></svg>