<svg id="visual" viewBox="0 0 900 450" width="900" height="450" xmlns="http://www.w3.org/2000/svg" xmlns:xlink="http://www.w3.org/1999/xlink" version="1.1"><rect x="0" y="0" width="900" height="450" fill="#1b2f3e"></rect><path d="M0 269L13.7 274.7C27.3 280.3 54.7 291.7 82 297.2C109.3 302.7 136.7 302.3 163.8 304.3C191 306.3 218 310.7 245.2 311.3C272.3 312 299.7 309 327 307.2C354.3 305.3 381.7 304.7 409 302.7C436.3 300.7 463.7 297.3 491 298.8C518.3 300.3 545.7 306.7 573 308.5C600.3 310.3 627.7 307.7 654.8 300.3C682 293 709 281 736.2 281.7C763.3 282.3 790.7 295.7 818 296C845.3 296.3 872.7 283.7 886.3 277.3L900 271L900 451L886.3 451C872.7 451 845.3 451 818 451C790.7 451 763.3 451 736.2 451C709 451 682 451 654.8 451C627.7 451 600.3 451 573 451C545.7 451 518.3 451 491 451C463.7 451 436.3 451 409 451C381.7 451 354.3 451 327 451C299.7 451 272.3 451 245.2 451C218 451 191 451 163.8 451C136.7 451 109.3 451 82 451C54.7 451 27.3 451 13.7 451L0 451Z" fill="#0c102c"></path><path d="M0 329L13.7 328.5C27.3 328 54.7 327 82 327.5C109.3 328 136.7 330 163.8 330.2C191 330.3 218 328.7 245.2 327.3C272.3 326 299.7 325 327 322C354.3 319 381.7 314 409 311.5C436.3 309 463.7 309 491 309C518.3 309 545.7 309 573 315.7C600.3 322.3 627.7 335.7 654.8 340.8C682 346 709 343 736.2 336.3C763.3 329.7 790.7 319.3 818 315.2C845.3 311 872.7 313 886.3 314L900 315L900 451L886.3 451C872.7 451 845.3 451 818 451C790.7 451 763.3 451 736.2 451C709 451 682 451 654.8 451C627.7 451 600.3 451 573 451C545.7 451 518.3 451 491 451C463.7 451 436.3 451 409 451C381.7 451 354.3 451 327 451C299.7 451 272.3 451 245.2 451C218 451 191 451 163.8 451C136.7 451 109.3 451 82 451C54.7 451 27.3 451 13.7 451L0 451Z" fill="#080a28"></path><path d="M0 368L13.7 367.2C27.3 366.3 54.7 364.7 82 364.8C109.3 365 136.7 367 163.8 367.5C191 368 218 367 245.2 363.2C272.3 359.3 299.7 352.7 327 351C354.3 349.3 381.7 352.7 409 358.5C436.3 364.3 463.7 372.7 491 374C518.3 375.3 545.7 369.7 573 366.8C600.3 364 627.7 364 654.8 367C682 370 709 376 736.2 376.2C763.3 376.3 790.7 370.7 818 365.2C845.3 359.7 872.7 354.3 886.3 351.7L900 349L900 451L886.3 451C872.7 451 845.3 451 818 451C790.7 451 763.3 451 736.2 451C709 451 682 451 654.8 451C627.7 451 600.3 451 573 451C545.7 451 518.3 451 491 451C463.7 451 436.3 451 409 451C381.7 451 354.3 451 327 451C299.7 451 272.3 451 245.2 451C218 451 191 451 163.8 451C136.7 451 109.3 451 82 451C54.7 451 27.3 451 13.7 451L0 451Z" fill="#040324"></path><path d="M0 410L13.7 410.5C27.3 411 54.7 412 82 409.3C109.3 406.7 136.7 400.3 163.8 395.8C191 391.3 218 388.7 245.2 388.3C272.3 388 299.7 390 327 391.7C354.3 393.3 381.7 394.7 409 399.3C436.3 404 463.7 412 491 413.5C518.3 415 545.7 410 573 410.2C600.3 410.3 627.7 415.7 654.8 412.8C682 410 709 399 736.2 399C763.3 399 790.7 410 818 414.8C845.3 419.7 872.7 418.3 886.3 417.7L900 417L900 451L886.3 451C872.7 451 845.3 451 818 451C790.7 451 763.3 451 736.2 451C709 451 682 451 654.8 451C627.7 451 600.3 451 573 451C545.7 451 518.3 451 491 451C463.7 451 436.3 451 409 451C381.7 451 354.3 451 327 451C299.7 451 272.3 451 245.2 451C218 451 191 451 163.8 451C136.7 451 109.3 451 82 451C54.7 451 27.3 451 13.7 451L0 451Z" fill="#000000"></path></svg>