<svg id="visual" viewBox="0 0 960 540" width="960" height="540" xmlns="http://www.w3.org/2000/svg" xmlns:xlink="http://www.w3.org/1999/xlink" version="1.1"><rect x="0" y="0" width="960" height="540" fill="#001220"></rect><path d="M537 540L538.3 527.2C539.7 514.3 542.3 488.7 551 463C559.7 437.3 574.3 411.7 575.2 386C576 360.3 563 334.7 566.2 308.8C569.3 283 588.7 257 585 231.2C581.3 205.3 554.7 179.7 560.2 154C565.7 128.3 603.3 102.7 607 77C610.7 51.3 580.3 25.7 565.2 12.8L550 0L960 0L960 12.8C960 25.7 960 51.3 960 77C960 102.7 960 128.3 960 154C960 179.7 960 205.3 960 231.2C960 257 960 283 960 308.8C960 334.7 960 360.3 960 386C960 411.7 960 437.3 960 463C960 488.7 960 514.3 960 527.2L960 540Z" fill="#6e87ff"></path><path d="M625 540L641.3 527.2C657.7 514.3 690.3 488.7 699.3 463C708.3 437.3 693.7 411.7 674.3 386C655 360.3 631 334.7 621.3 308.8C611.7 283 616.3 257 625.3 231.2C634.3 205.3 647.7 179.7 646.7 154C645.7 128.3 630.3 102.7 631 77C631.7 51.3 648.3 25.7 656.7 12.8L665 0L960 0L960 12.8C960 25.7 960 51.3 960 77C960 102.7 960 128.3 960 154C960 179.7 960 205.3 960 231.2C960 257 960 283 960 308.8C960 334.7 960 360.3 960 386C960 411.7 960 437.3 960 463C960 488.7 960 514.3 960 527.2L960 540Z" fill="#6182fe"></path><path d="M785 540L780.7 527.2C776.3 514.3 767.7 488.7 748.2 463C728.7 437.3 698.3 411.7 681.7 386C665 360.3 662 334.7 677.7 308.8C693.3 283 727.7 257 746.8 231.2C766 205.3 770 179.7 759.7 154C749.3 128.3 724.7 102.7 718.8 77C713 51.3 726 25.7 732.5 12.8L739 0L960 0L960 12.8C960 25.7 960 51.3 960 77C960 102.7 960 128.3 960 154C960 179.7 960 205.3 960 231.2C960 257 960 283 960 308.8C960 334.7 960 360.3 960 386C960 411.7 960 437.3 960 463C960 488.7 960 514.3 960 527.2L960 540Z" fill="#537dfd"></path><path d="M787 540L783.7 527.2C780.3 514.3 773.7 488.7 769.2 463C764.7 437.3 762.3 411.7 768.7 386C775 360.3 790 334.7 793.3 308.8C796.7 283 788.3 257 781 231.2C773.7 205.3 767.3 179.7 777.7 154C788 128.3 815 102.7 820 77C825 51.3 808 25.7 799.5 12.8L791 0L960 0L960 12.8C960 25.7 960 51.3 960 77C960 102.7 960 128.3 960 154C960 179.7 960 205.3 960 231.2C960 257 960 283 960 308.8C960 334.7 960 360.3 960 386C960 411.7 960 437.3 960 463C960 488.7 960 514.3 960 527.2L960 540Z" fill="#4278fc"></path><path d="M860 540L852.8 527.2C845.7 514.3 831.3 488.7 838.7 463C846 437.3 875 411.7 878.8 386C882.7 360.3 861.3 334.7 857.2 308.8C853 283 866 257 863.2 231.2C860.3 205.3 841.7 179.7 836 154C830.3 128.3 837.7 102.7 849.8 77C862 51.3 879 25.7 887.5 12.8L896 0L960 0L960 12.8C960 25.7 960 51.3 960 77C960 102.7 960 128.3 960 154C960 179.7 960 205.3 960 231.2C960 257 960 283 960 308.8C960 334.7 960 360.3 960 386C960 411.7 960 437.3 960 463C960 488.7 960 514.3 960 527.2L960 540Z" fill="#2a73fc"></path></svg>