<svg id="visual" viewBox="0 0 960 540" width="960" height="540" xmlns="http://www.w3.org/2000/svg" xmlns:xlink="http://www.w3.org/1999/xlink" version="1.1"><rect x="0" y="0" width="960" height="540" fill="#001220"></rect><path d="M608 540L609 527.2C610 514.3 612 488.7 619.2 463C626.3 437.3 638.7 411.7 639.5 386C640.3 360.3 629.7 334.7 632.2 308.8C634.7 283 650.3 257 647.2 231.2C644 205.3 622 179.7 626.7 154C631.3 128.3 662.7 102.7 665.7 77C668.7 51.3 643.3 25.7 630.7 12.8L618 0L960 0L960 12.8C960 25.7 960 51.3 960 77C960 102.7 960 128.3 960 154C960 179.7 960 205.3 960 231.2C960 257 960 283 960 308.8C960 334.7 960 360.3 960 386C960 411.7 960 437.3 960 463C960 488.7 960 514.3 960 527.2L960 540Z" fill="#6e87ff"></path><path d="M681 540L694.7 527.2C708.3 514.3 735.7 488.7 743.2 463C750.7 437.3 738.3 411.7 722.2 386C706 360.3 686 334.7 678 308.8C670 283 674 257 681.5 231.2C689 205.3 700 179.7 699 154C698 128.3 685 102.7 685.5 77C686 51.3 700 25.7 707 12.8L714 0L960 0L960 12.8C960 25.7 960 51.3 960 77C960 102.7 960 128.3 960 154C960 179.7 960 205.3 960 231.2C960 257 960 283 960 308.8C960 334.7 960 360.3 960 386C960 411.7 960 437.3 960 463C960 488.7 960 514.3 960 527.2L960 540Z" fill="#6182fe"></path><path d="M815 540L811.2 527.2C807.3 514.3 799.7 488.7 783.3 463C767 437.3 742 411.7 728.2 386C714.3 360.3 711.7 334.7 724.7 308.8C737.7 283 766.3 257 782.3 231.2C798.3 205.3 801.7 179.7 793 154C784.3 128.3 763.7 102.7 758.8 77C754 51.3 765 25.7 770.5 12.8L776 0L960 0L960 12.8C960 25.7 960 51.3 960 77C960 102.7 960 128.3 960 154C960 179.7 960 205.3 960 231.2C960 257 960 283 960 308.8C960 334.7 960 360.3 960 386C960 411.7 960 437.3 960 463C960 488.7 960 514.3 960 527.2L960 540Z" fill="#537dfd"></path><path d="M816 540L813.2 527.2C810.3 514.3 804.7 488.7 800.8 463C797 437.3 795 411.7 800.3 386C805.7 360.3 818.3 334.7 821.2 308.8C824 283 817 257 810.8 231.2C804.7 205.3 799.3 179.7 808 154C816.7 128.3 839.3 102.7 843.5 77C847.7 51.3 833.3 25.7 826.2 12.8L819 0L960 0L960 12.8C960 25.7 960 51.3 960 77C960 102.7 960 128.3 960 154C960 179.7 960 205.3 960 231.2C960 257 960 283 960 308.8C960 334.7 960 360.3 960 386C960 411.7 960 437.3 960 463C960 488.7 960 514.3 960 527.2L960 540Z" fill="#4278fc"></path><path d="M877 540L871 527.2C865 514.3 853 488.7 859.2 463C865.3 437.3 889.7 411.7 893 386C896.3 360.3 878.7 334.7 875.2 308.8C871.7 283 882.3 257 879.8 231.2C877.3 205.3 861.7 179.7 857 154C852.3 128.3 858.7 102.7 868.8 77C879 51.3 893 25.7 900 12.8L907 0L960 0L960 12.8C960 25.7 960 51.3 960 77C960 102.7 960 128.3 960 154C960 179.7 960 205.3 960 231.2C960 257 960 283 960 308.8C960 334.7 960 360.3 960 386C960 411.7 960 437.3 960 463C960 488.7 960 514.3 960 527.2L960 540Z" fill="#2a73fc"></path></svg>