<svg id="visual" viewBox="0 0 900 450" width="900" height="450" xmlns="http://www.w3.org/2000/svg" xmlns:xlink="http://www.w3.org/1999/xlink" version="1.1"><path d="M0 141L82 199L164 159L245 91L327 159L409 172L491 168L573 136L655 159L736 91L818 82L900 136L900 0L818 0L736 0L655 0L573 0L491 0L409 0L327 0L245 0L164 0L82 0L0 0Z" fill="#03105c"></path><path d="M0 235L82 262L164 276L245 231L327 276L409 253L491 244L573 280L655 276L736 294L818 262L900 208L900 134L818 80L736 89L655 157L573 134L491 166L409 170L327 157L245 89L164 157L82 197L0 139Z" fill="#01104d"></path><path d="M0 271L82 298L164 334L245 276L327 307L409 316L491 271L573 325L655 325L736 325L818 334L900 285L900 206L818 260L736 292L655 274L573 278L491 242L409 251L327 274L245 229L164 274L82 260L0 233Z" fill="#040e3d"></path><path d="M0 397L82 357L164 370L245 393L327 370L409 388L491 357L573 388L655 411L736 397L818 406L900 370L900 283L818 332L736 323L655 323L573 323L491 269L409 314L327 305L245 274L164 332L82 296L0 269Z" fill="#08092e"></path><path d="M0 451L82 451L164 451L245 451L327 451L409 451L491 451L573 451L655 451L736 451L818 451L900 451L900 368L818 404L736 395L655 409L573 386L491 355L409 386L327 368L245 391L164 368L82 355L0 395Z" fill="#06041f"></path></svg>