<svg id="visual" viewBox="0 0 900 600" width="900" height="600" xmlns="http://www.w3.org/2000/svg" xmlns:xlink="http://www.w3.org/1999/xlink" version="1.1"><rect x="0" y="0" width="900" height="600" fill="#326782"></rect><path d="M0 372L13.7 385.5C27.3 399 54.7 426 82 429.3C109.3 432.7 136.7 412.3 163.8 415.7C191 419 218 446 245.2 446.3C272.3 446.7 299.7 420.3 327 414.7C354.3 409 381.7 424 409 431.5C436.3 439 463.7 439 491 437.8C518.3 436.7 545.7 434.3 573 424.2C600.3 414 627.7 396 654.8 387.3C682 378.7 709 379.3 736.2 395C763.3 410.7 790.7 441.3 818 450.3C845.3 459.3 872.7 446.7 886.3 440.3L900 434L900 601L886.3 601C872.7 601 845.3 601 818 601C790.7 601 763.3 601 736.2 601C709 601 682 601 654.8 601C627.7 601 600.3 601 573 601C545.7 601 518.3 601 491 601C463.7 601 436.3 601 409 601C381.7 601 354.3 601 327 601C299.7 601 272.3 601 245.2 601C218 601 191 601 163.8 601C136.7 601 109.3 601 82 601C54.7 601 27.3 601 13.7 601L0 601Z" fill="#052048" stroke-linecap="round" stroke-linejoin="miter"></path></svg>